<svg xmlns="http://www.w3.org/2000/svg" viewBox="0 0 640 480">
  <!-- Docker Whale -->
  <path fill="#2496ED" d="M401.8 184h47.3v48.5h23.9c11.1 0 22.4-2 32.9-5.5 5.1-1.7 10.9-4.1 15.9-7.1-6.6-8.7-10-19.7-11-30.5-1.3-14.8 1.6-34.1 11.6-45.7l5-5.8 5.9 4.8c14.9 12.1 27.4 29 29.6 48.3 17.9-5.3 38.9-4.1 54.6 5.1l6.5 3.8-3.4 6.7c-13.3 26.1-41.2 34.2-68.4 32.7-40.7 101.4-129.2 149.4-236.7 149.4-55.5 0-106.4-20.8-135.4-70.1l-0.5-0.8-4.4-9c-10.3-22.6-13.7-47.4-11.4-72l0.7-7.5h41.4v-48.5h47.3v-47.3h94.6v-47.3h56.7v94.6z"/>
  
  <!-- Containers -->
  <path fill="#FFFFFF" d="M148.6 184h44.2v44.2h-44.2z"/>
  <path fill="#FFFFFF" d="M201 184h44.2v44.2h-44.2z"/>
  <path fill="#FFFFFF" d="M253.4 184h44.2v44.2h-44.2z"/>
  <path fill="#FFFFFF" d="M305.8 184h44.2v44.2h-44.2z"/>
  <path fill="#FFFFFF" d="M148.6 131.6h44.2v44.2h-44.2z"/>
  <path fill="#FFFFFF" d="M201 131.6h44.2v44.2h-44.2z"/>
  <path fill="#FFFFFF" d="M253.4 131.6h44.2v44.2h-44.2z"/>
  <path fill="#FFFFFF" d="M201 79.2h44.2v44.2h-44.2z"/>
  <path fill="#FFFFFF" d="M253.4 79.2h44.2v44.2h-44.2z"/>
</svg>