<?xml version="1.0" encoding="UTF-8"?>
<svg xmlns="http://www.w3.org/2000/svg" viewBox="0 0 32 32">
    <path d="M15.9.476a2.14 2.14 0 0 0-.823.218L4.275 6.13a2.167 2.167 0 0 0-1.078 1.334L.138 18.902a2.167 2.167 0 0 0 .298 1.667c.208.29.49.525.812.687l10.804 5.435c.5.251 1.066.335 1.617.245.164-.027.328-.066.49-.121l10.804-5.435c.322-.162.604-.398.812-.687.24-.336.375-.738.375-1.15 0-.175-.02-.349-.058-.517L22.933 7.464a2.167 2.167 0 0 0-1.078-1.334L11.051.694a2.14 2.14 0 0 0-1.151-.218z" fill="#326ce5"/>
    <path d="M16.002 4.542c-.384.027-.675.356-.655.74.018.385.336.677.722.677.385 0 .704-.292.722-.677.02-.384-.271-.713-.655-.74-.022-.002-.045-.002-.067-.002-.022 0-.045 0-.067.002zm-5.387.74c-.364.004-.701.193-.912.508-.21.315-.267.714-.15 1.076.117.362.395.648.754.775.36.127.756.085 1.075-.114.32-.198.525-.535.552-.905.027-.37-.132-.73-.428-.97-.296-.242-.69-.35-1.076-.29-.055.008-.11.02-.164.035-.027.008-.055.016-.082.026-.027.01-.054.02-.08.032-.055.024-.108.052-.16.084zm10.84.001c-.38-.001-.735.196-.93.52-.195.322-.21.723-.04 1.06.17.337.5.57.873.616.374.047.748-.102.994-.395.246-.292.32-.695.196-1.056-.124-.36-.425-.635-.795-.724-.1-.023-.2-.03-.298-.021zm-5.387 2.173c-3.563 0-6.486 2.952-6.486 6.429 0 3.477 2.923 6.429 6.486 6.429 3.563 0 6.486-2.952 6.486-6.429 0-3.477-2.923-6.429-6.486-6.429zm-9.73 3.346c-.365.002-.703.191-.914.506-.212.314-.27.713-.153 1.075.117.362.396.648.755.774.36.127.756.084 1.075-.115.32-.199.525-.536.552-.905.027-.37-.132-.73-.428-.97-.296-.242-.69-.35-1.076-.29-.055.008-.11.02-.164.035-.027.008-.055.016-.082.026-.027.01-.054.02-.08.032-.055.024-.108.052-.16.084zm19.526 0c-.38-.001-.735.196-.93.52-.195.322-.21.723-.04 1.06.17.337.5.57.873.616.374.047.748-.102.994-.395.246-.292.32-.695.196-1.056-.124-.36-.425-.635-.795-.724-.1-.023-.2-.03-.298-.021zm-14.139 5.52c-.364.004-.701.193-.912.508-.21.315-.267.714-.15 1.076.117.362.395.648.754.775.36.127.756.085 1.075-.114.32-.198.525-.535.552-.905.027-.37-.132-.73-.428-.97-.296-.242-.69-.35-1.076-.29-.055.008-.11.02-.164.035-.027.008-.055.016-.082.026-.027.01-.054.02-.08.032-.055.024-.108.052-.16.084zm8.818 0c-.38-.001-.735.196-.93.52-.195.322-.21.723-.04 1.06.17.337.5.57.873.616.374.047.748-.102.994-.395.246-.292.32-.695.196-1.056-.124-.36-.425-.635-.795-.724-.1-.023-.2-.03-.298-.021zm-4.475 2.173c-.384.027-.675.356-.655.74.018.385.336.677.722.677.385 0 .704-.292.722-.677.02-.384-.271-.713-.655-.74-.022-.002-.045-.002-.067-.002-.022 0-.045 0-.067.002z" fill="#fff"/>
</svg>