<?xml version="1.0" encoding="UTF-8"?>
<svg xmlns="http://www.w3.org/2000/svg" viewBox="0 0 16.933 16.933">
  <path d="M9.97.036c-.267.004-.523.083-.75.217L2.056 4.739c-.457.27-.742.77-.744 1.307v9.162c0 .537.285 1.036.744 1.307l7.164 4.486c.457.27 1.03.27 1.488 0l7.164-4.486c.457-.27.744-.77.744-1.307V6.046c0-.537-.285-1.036-.744-1.307L10.708.253C10.481.119 10.225.04 9.958.036zm.023.558c.18.003.354.056.508.147l7.164 4.486c.31.183.504.522.504.886v9.162c0 .364-.194.703-.504.886l-7.164 4.486c-.31.183-.698.183-1.008 0L2.329 16.16c-.31-.183-.504-.522-.504-.886V6.113c0-.364.194-.703.504-.886L9.493.74c.154-.091.33-.144.51-.147z" style="line-height:normal;font-variant-ligatures:normal;font-variant-position:normal;font-variant-caps:normal;font-variant-numeric:normal;font-variant-alternates:normal;font-feature-settings:normal;text-indent:0;text-align:start;text-decoration-line:none;text-decoration-style:solid;text-decoration-color:#000;text-transform:none;text-orientation:mixed;shape-padding:0;isolation:auto;mix-blend-mode:normal" color="#000" font-weight="400" font-family="sans-serif" white-space="normal" overflow="visible" fill="#e0234e"/>
  <path d="M10.082 2.42c-.462.004-.907.215-1.235.573-.38.413-.607.99-.607 1.608 0 .618.227 1.195.607 1.608.38.413.907.657 1.488.657s1.108-.244 1.488-.657c.38-.413.607-.99.607-1.608 0-.618-.227-1.195-.607-1.608-.38-.413-.907-.657-1.488-.657-.087 0-.174.006-.26.018zm0 .558c.087-.012.174-.018.26-.018.58 0 1.108.244 1.488.657.38.413.607.99.607 1.608 0 .618-.227 1.195-.607 1.608-.38.413-.907.657-1.488.657s-1.108-.244-1.488-.657c-.38-.413-.607-.99-.607-1.608 0-.618.227-1.195.607-1.608.328-.358.773-.569 1.235-.573z" style="line-height:normal;font-variant-ligatures:normal;font-variant-position:normal;font-variant-caps:normal;font-variant-numeric:normal;font-variant-alternates:normal;font-feature-settings:normal;text-indent:0;text-align:start;text-decoration-line:none;text-decoration-style:solid;text-decoration-color:#000;text-transform:none;text-orientation:mixed;shape-padding:0;isolation:auto;mix-blend-mode:normal" color="#000" font-weight="400" font-family="sans-serif" white-space="normal" overflow="visible" fill="#e0234e"/>
</svg>